<?xml version="1.0" standalone="no"?>
<!DOCTYPE svg PUBLIC "-//W3C//DTD SVG 20010904//EN" "http://www.w3.org/TR/2001/REC-SVG-20010904/DTD/svg10.dtd">
<!-- Created using Krita: https://krita.org -->
<svg xmlns="http://www.w3.org/2000/svg" 
    xmlns:xlink="http://www.w3.org/1999/xlink"
    xmlns:krita="http://krita.org/namespaces/svg/krita"
    xmlns:sodipodi="http://sodipodi.sourceforge.net/DTD/sodipodi-0.dtd"
    width="15.36pt"
    height="15.36pt"
    viewBox="0 0 15.36 15.36">
<defs/>
<rect id="shape0" fill="#ffebb7" fill-rule="evenodd" stroke="none" stroke-width="0.24" stroke-linecap="square" stroke-linejoin="bevel" width="15.36" height="15.36" rx="2.03810824244545" ry="2.03810824244545"/><path id="shape1" transform="matrix(0.0184926559113894 0 0 0.0184926559113894 0.321772212858171 4.88206116060686)" fill="#ad8e70" stroke-opacity="0" stroke="#000000" stroke-width="0" stroke-linecap="square" stroke-linejoin="bevel" d="M0 0L795.8 0" sodipodi:nodetypes="cc"/><path id="shape2" transform="matrix(0.0184926559113894 0 0 0.0184926559113894 -1.21419315193968e-15 4.40206116060681)" fill="#ad8e70" stroke-opacity="0" stroke="#000000" stroke-width="0" stroke-linecap="square" stroke-linejoin="bevel" d="M813.2 51.9125L17.4 51.9125C7.8 51.9125 0 40.2769 0 25.9563C0 11.6356 7.8 0 17.4 0L813.2 0C822.8 0 830.6 11.6356 830.6 25.9563C830.6 40.2769 822.8 51.9125 813.2 51.9125Z" sodipodi:nodetypes="ccccccc"/><path id="shape3" transform="matrix(0.0184926559113894 0 0 0.0184926559113894 0.321772212858171 10.4797881049841)" fill="#ad8e70" stroke-opacity="0" stroke="#000000" stroke-width="0" stroke-linecap="square" stroke-linejoin="bevel" d="M0 0L795.8 0" sodipodi:nodetypes="cc"/><path id="shape4" transform="matrix(0.0184926559113894 0 0 0.0184926559113894 -1.21419315193968e-15 9.9979388393934)" fill="#ad8e70" stroke-opacity="0" stroke="#000000" stroke-width="0" stroke-linecap="square" stroke-linejoin="bevel" d="M813.2 51.9125L17.4 51.9125C7.8 51.9125 0 40.2769 0 25.9563C0 11.6356 7.8 0 17.4 0L813.2 0C822.8 0 830.6 11.6356 830.6 25.9563C830.6 40.2769 822.8 51.9125 813.2 51.9125Z" sodipodi:nodetypes="ccccccc"/><path id="shape5" transform="matrix(0.0184926559113894 0 0 0.0184926559113894 4.88206116060686 0.321772212858169)" fill="#ad8e70" stroke-opacity="0" stroke="#000000" stroke-width="0" stroke-linecap="square" stroke-linejoin="bevel" d="M0 795.8L0 0" sodipodi:nodetypes="cc"/><path id="shape6" transform="matrix(0.0184926559113894 0 0 0.0184926559113894 4.4020611606068 2.77555756156289e-17)" fill="#ad8e70" stroke-opacity="0" stroke="#000000" stroke-width="0" stroke-linecap="square" stroke-linejoin="bevel" d="M25.9563 830.6C11.6356 830.6 0 822.8 0 813.2L0 17.4C0 7.8 11.6356 0 25.9563 0C40.2769 0 51.9125 7.8 51.9125 17.4L51.9125 813.2C51.9125 822.8 40.2769 830.6 25.9563 830.6Z" sodipodi:nodetypes="ccccccc"/><path id="shape7" transform="matrix(0.0184926559113894 0 0 0.0184926559113894 10.4797881049841 0.321772212858169)" fill="#ad8e70" stroke-opacity="0" stroke="#000000" stroke-width="0" stroke-linecap="square" stroke-linejoin="bevel" d="M0 795.8L0 0" sodipodi:nodetypes="cc"/><path id="shape8" transform="matrix(0.0184926559113894 0 0 0.0184926559113894 9.99978810498454 2.77555756156289e-17)" fill="#ad8e70" stroke-opacity="0" stroke="#000000" stroke-width="0" stroke-linecap="square" stroke-linejoin="bevel" d="M25.9563 830.6C11.6356 830.6 0 822.8 0 813.2L0 17.4C0 7.8 11.6356 0 25.9563 0C40.2769 0 51.9125 7.8 51.9125 17.4L51.9125 813.2C51.7633 822.8 40.2769 830.6 25.9563 830.6Z" sodipodi:nodetypes="ccccccc"/><path id="shape9" transform="matrix(0.0184926559113894 0 0 0.0184926559113894 0.887754185471677 1.01905204244252)" fill="#ad8e70" stroke-opacity="0" stroke="#000000" stroke-width="0" stroke-linecap="square" stroke-linejoin="bevel" d="M75.9 151.8C34 151.8 0 117.7 0 75.9C0 34.1 34.1 0 75.9 0C117.7 0 151.8 34.1 151.8 75.9C151.8 117.7 117.7 151.8 75.9 151.8ZM75.9 34.7C53.2 34.7 34.8 53.2 34.8 75.8C34.8 98.4 53.3 116.9 75.9 116.9C98.6 116.9 117 98.4 117 75.8C117 53.2 98.5 34.7 75.9 34.7Z" sodipodi:nodetypes="cccccccccc"/><path id="shape10" transform="matrix(0.0184926559113894 0 0 0.0184926559113894 6.27640741632555 6.27640741632555)" fill="#ad8e70" stroke-opacity="0" stroke="#000000" stroke-width="0" stroke-linecap="square" stroke-linejoin="bevel" d="M75.9 151.8C34 151.8 0 117.8 0 75.9C0 34 34.1 0 75.9 0C117.7 0 151.8 34.1 151.8 75.9C151.8 117.7 117.7 151.8 75.9 151.8ZM75.9 34.7C53.2 34.7 34.8 53.2 34.8 75.8C34.8 98.5 53.3 116.9 75.9 116.9C98.6 116.9 117 98.4 117 75.8C117 53.2 98.6 34.7 75.9 34.7Z" sodipodi:nodetypes="cccccccccc"/><path id="shape11" transform="matrix(0.0184926559113894 0 0 0.0184926559113894 11.9185167348902 12.1496749337829)" fill="#ad8e70" stroke-opacity="0" stroke="#000000" stroke-width="0" stroke-linecap="square" stroke-linejoin="bevel" d="M17.4 126.4C13 126.4 8.5 124.7 5.1 121.3C-1.7 114.5 -1.7 103.5 5.1 96.7L96.7 5.1C103.5 -1.7 114.5 -1.7 121.3 5.1C128.1 11.9 128.1 22.9 121.3 29.7L29.7 121.3C26.3 124.7 21.9 126.4 17.4 126.4Z" sodipodi:nodetypes="cccccccc"/><path id="shape12" transform="matrix(0.0184926559113894 0 0 0.0184926559113894 11.9185167348902 12.1496749337829)" fill="#ad8e70" stroke-opacity="0" stroke="#000000" stroke-width="0" stroke-linecap="square" stroke-linejoin="bevel" d="M109 126.4C104.6 126.4 100.1 124.7 96.7 121.3L5.1 29.7C-1.7 22.9 -1.7 11.9 5.1 5.1C11.9 -1.7 22.9 -1.7 29.7 5.1L121.3 96.7C128.1 103.5 128.1 114.5 121.3 121.3C117.9 124.7 113.5 126.4 109 126.4Z" sodipodi:nodetypes="cccccccc"/><path id="shape0" transform="matrix(0.0184926563613245 0 0 0.0184926563613245 6.51126411796429 12.0312641179643)" fill="#ad8e70" stroke-opacity="0" stroke="#000000" stroke-width="0" stroke-linecap="square" stroke-linejoin="bevel" d="M109 126.4C104.6 126.4 100.1 124.7 96.7 121.3L5.1 29.7C-1.7 22.9 -1.7 11.9 5.1 5.1C11.9 -1.7 22.9 -1.7 29.7 5.1L121.3 96.7C128.1 103.5 128.1 114.5 121.3 121.3C117.9 124.7 113.5 126.4 109 126.4Z" sodipodi:nodetypes="cccccccc"/><path id="shape01" transform="matrix(0.0184926563613245 0 0 0.0184926563613245 6.51126411796429 12.0312641179643)" fill="#ad8e70" stroke-opacity="0" stroke="#000000" stroke-width="0" stroke-linecap="square" stroke-linejoin="bevel" d="M17.4 126.4C13 126.4 8.5 124.7 5.1 121.3C-1.7 114.5 -1.7 103.5 5.1 96.7L96.7 5.1C103.5 -1.7 114.5 -1.7 121.3 5.1C128.1 11.9 128.1 22.9 121.3 29.7L29.7 121.3C26.3 124.7 21.9 126.4 17.4 126.4Z" sodipodi:nodetypes="cccccccc"/>
</svg>
